<svg id="Capa_1" data-name="Capa 1" xmlns="http://www.w3.org/2000/svg" viewBox="0 0 90 90"><defs><style>.cls-1{fill:#ee9913;}</style></defs><title>Sin título-4</title><path class="cls-1" d="M45.27,55.49l-5.2-15.73L54.79,28.17a4.28,4.28,0,0,1,6.37,2.28l6.2,18.79a4.27,4.27,0,0,1-3.46,5.58h-.1Zm-2.86-15,4.29,13,17-.61a2.24,2.24,0,0,0,1.57-1,2.27,2.27,0,0,0,.23-1.92L59.26,31.07a2.29,2.29,0,0,0-3.36-1.23Z"/><path class="cls-1" d="M33.91,59.11a4.07,4.07,0,0,1-1.8-.43,4,4,0,0,1-2-2.32l-2.85-8.62a4,4,0,0,1,2.55-5.05l12.11-4L47.28,54.9l-12.12,4A3.86,3.86,0,0,1,33.91,59.11Zm6.74-17.9L30.43,44.58a2,2,0,0,0-1.27,2.53L32,55.73A2,2,0,0,0,34.54,57l10.21-3.37Z"/><path class="cls-1" d="M43.29,70.9a4.5,4.5,0,0,1-4.07-2.56L33.93,57.2l9.25-3.05,5.26,9.72a4.49,4.49,0,0,1-2.54,6.41l-1.21.4A4.54,4.54,0,0,1,43.29,70.9ZM36.71,58.39,41,67.48a2.5,2.5,0,0,0,3,1.3l1.22-.4a2.51,2.51,0,0,0,1.41-3.56l-4.47-8.25Z"/></svg>