<svg id="Capa_1" data-name="Capa 1" xmlns="http://www.w3.org/2000/svg" viewBox="0 0 90 90"><defs><style>.cls-1{fill:#ee9913;}</style></defs><title>Sin título-4</title><path class="cls-1" d="M60.76,64.89H29.24a4.29,4.29,0,0,1-4.4-4.16V23.81a4.28,4.28,0,0,1,4.4-4.15H60.76a4.28,4.28,0,0,1,4.4,4.15V60.73A4.29,4.29,0,0,1,60.76,64.89ZM29.24,21.66a2.29,2.29,0,0,0-2.4,2.15V60.73a2.29,2.29,0,0,0,2.4,2.16H60.76a2.29,2.29,0,0,0,2.4-2.16V23.81a2.29,2.29,0,0,0-2.4-2.15Z"/><path class="cls-1" d="M37.74,40H34.58a4,4,0,0,1-4-4V32.86a4,4,0,0,1,4-4h3.16a4,4,0,0,1,4,4V36A4,4,0,0,1,37.74,40Zm-3.16-9.16a2,2,0,0,0-2,2V36a2,2,0,0,0,2,2h3.16a2,2,0,0,0,2-2V32.86a2,2,0,0,0-2-2Z"/><path class="cls-1" d="M37.74,56.94H34.58a4,4,0,0,1-4-4V49.78a4,4,0,0,1,4-4h3.16a4,4,0,0,1,4,4v3.16A4,4,0,0,1,37.74,56.94Zm-3.16-9.16a2,2,0,0,0-2,2v3.16a2,2,0,0,0,2,2h3.16a2,2,0,0,0,2-2V49.78a2,2,0,0,0-2-2Z"/><polygon class="cls-1" points="37.87 37.15 33.8 33.07 35.21 31.66 37.87 34.32 44.29 27.9 45.71 29.31 37.87 37.15"/><polygon class="cls-1" points="37.87 54.18 33.8 50.11 35.21 48.69 37.87 51.35 44.29 44.93 45.71 46.35 37.87 54.18"/><rect class="cls-1" x="44.5" y="32.04" width="13.97" height="2"/><rect class="cls-1" x="44.5" y="34.84" width="9.04" height="2"/><rect class="cls-1" x="44.5" y="48.2" width="13.97" height="2"/><rect class="cls-1" x="44.5" y="51.01" width="9.04" height="2"/></svg>