<svg id="Capa_1" data-name="Capa 1" xmlns="http://www.w3.org/2000/svg" viewBox="0 0 90 90"><defs><style>.cls-1{fill:#ee9913;}</style></defs><title>Sin título-4</title><path class="cls-1" d="M19.81,52.71V47.26H18.43A3.44,3.44,0,0,1,15,43.83V24.43A3.44,3.44,0,0,1,18.43,21H50.77a3.43,3.43,0,0,1,3.42,3.43v6.76h-2V24.43A1.43,1.43,0,0,0,50.77,23H18.43A1.43,1.43,0,0,0,17,24.43v19.4a1.43,1.43,0,0,0,1.43,1.43h3.38v2.62l2.63-2.62h5.27v2H25.27Z"/><path class="cls-1" d="M62.31,62.41,56.86,57H31.36a3.43,3.43,0,0,1-3.42-3.43V34.13a3.43,3.43,0,0,1,3.42-3.43H63.7a3.44,3.44,0,0,1,3.43,3.43v19.4A3.44,3.44,0,0,1,63.7,57H62.31ZM31.36,32.7a1.43,1.43,0,0,0-1.42,1.43v19.4A1.43,1.43,0,0,0,31.36,55H57.69l2.62,2.63V55H63.7a1.43,1.43,0,0,0,1.43-1.43V34.13A1.43,1.43,0,0,0,63.7,32.7Z"/><path class="cls-1" d="M37.53,47.54a4,4,0,1,1,4-4A4,4,0,0,1,37.53,47.54Zm0-6a2,2,0,1,0,2,2A2,2,0,0,0,37.53,41.54Z"/><path class="cls-1" d="M47.53,47.54a4,4,0,1,1,4-4A4,4,0,0,1,47.53,47.54Zm0-6a2,2,0,1,0,2,2A2,2,0,0,0,47.53,41.54Z"/><path class="cls-1" d="M57.53,47.54a4,4,0,1,1,4-4A4,4,0,0,1,57.53,47.54Zm0-6a2,2,0,1,0,2,2A2,2,0,0,0,57.53,41.54Z"/></svg>