<svg id="Capa_1" data-name="Capa 1" xmlns="http://www.w3.org/2000/svg" viewBox="0 0 90 90"><defs><style>.cls-1{fill:#ee9913;}</style></defs><title>Sin título-4</title><path class="cls-1" d="M69.11,63.84H20.89a4,4,0,0,1-4-4V33.08a4,4,0,0,1,4-4H69.11a4,4,0,0,1,4,4V59.84A4,4,0,0,1,69.11,63.84ZM20.89,31.08a2,2,0,0,0-2,2V59.84a2,2,0,0,0,2,2H69.11a2,2,0,0,0,2-2V33.08a2,2,0,0,0-2-2Z"/><polygon class="cls-1" points="44.99 50.56 18.42 31.56 19.58 29.94 44.99 48.1 70.41 29.94 71.57 31.57 44.99 50.56"/><rect class="cls-1" x="16" y="52.97" width="25.67" height="2" transform="translate(-27.55 30.19) rotate(-39.02)"/><rect class="cls-1" x="60.16" y="40.62" width="2" height="26.3" transform="translate(-19.13 67.42) rotate(-50.97)"/></svg>