<svg id="Capa_1" data-name="Capa 1" xmlns="http://www.w3.org/2000/svg" viewBox="0 0 90 90"><defs><style>.cls-1{fill:#ee9913;}</style></defs><title>Sin título-4</title><path class="cls-1" d="M45,20.33a1.13,1.13,0,0,1,.44.1L69.55,32.1a1,1,0,0,1,0,1.8L45.44,45.57a1,1,0,0,1-.88,0L20.45,33.9a1,1,0,0,1,0-1.8L44.56,20.43a1.13,1.13,0,0,1,.44-.1m0-2a3,3,0,0,0-1.31.3L19.58,30.3a3,3,0,0,0,0,5.4L43.69,47.37a3,3,0,0,0,2.62,0L70.42,35.7a3,3,0,0,0,0-5.4L46.31,18.63a3,3,0,0,0-1.31-.3Z"/><path class="cls-1" d="M44.13,58c-14.38,0-18-5.23-18.1-5.45l-.16-.25V38.65h2v13c.8.86,4.72,4.35,16.26,4.35s16.88-4.32,18-5.4V38h2V51.36l-.23.28C63.68,51.9,58.43,58,44.13,58Z"/><rect class="cls-1" x="68" y="35" width="2" height="19"/><path class="cls-1" d="M69,59a3,3,0,1,1,3-3A3,3,0,0,1,69,59Zm0-4a1,1,0,1,0,1,1A1,1,0,0,0,69,55Z"/></svg>