<svg id="Capa_1" data-name="Capa 1" xmlns="http://www.w3.org/2000/svg" viewBox="0 0 90 90"><defs><style>.cls-1{fill:#ee9913;}</style></defs><title>Sin título-4</title><path class="cls-1" d="M57.05,67.73H37.6a4,4,0,0,1-4-4v-30a4,4,0,0,1,4-4h16l7.44,7.44V63.73A4,4,0,0,1,57.05,67.73Zm-19.45-36a2,2,0,0,0-2,2v30a2,2,0,0,0,2,2H57.05a2,2,0,0,0,2-2V38l-6.27-6.27Z"/><path class="cls-1" d="M34.6,59.24h-7a4,4,0,0,1-4-4v-30a4,4,0,0,1,4-4H47a4,4,0,0,1,4,4v5.49H49V25.26a2,2,0,0,0-2-2H27.55a2,2,0,0,0-2,2v30a2,2,0,0,0,2,2H34.6Z"/><path class="cls-1" d="M53.6,33.16,58,37.53H53.6V33.16m-1-2.41v7.78h7.78L52.6,30.75Z"/><rect class="cls-1" x="38.37" y="43.61" width="11.63" height="2"/><rect class="cls-1" x="38.37" y="48.13" width="16.68" height="2"/><rect class="cls-1" x="38.37" y="52.65" width="11.63" height="2"/><rect class="cls-1" x="38.37" y="57.24" width="16.68" height="2"/></svg>